<?xml version="1.0" encoding="UTF-8" standalone="no"?>
<!-- Generator: Adobe Illustrator 14.0.0, SVG Export Plug-In . SVG Version: 6.00 Build 43363)  -->

<svg
   xmlns:dc="http://purl.org/dc/elements/1.1/"
   xmlns:cc="http://creativecommons.org/ns#"
   xmlns:rdf="http://www.w3.org/1999/02/22-rdf-syntax-ns#"
   xmlns:svg="http://www.w3.org/2000/svg"
   xmlns="http://www.w3.org/2000/svg"
   xmlns:sodipodi="http://sodipodi.sourceforge.net/DTD/sodipodi-0.dtd"
   xmlns:inkscape="http://www.inkscape.org/namespaces/inkscape"
   version="1.1"
   id="Layer_1"
   x="0px"
   y="0px"
   width="212.598px"
   height="99.213px"
   viewBox="0 0 212.598 99.213"
   enable-background="new 0 0 212.598 99.213"
   xml:space="preserve"
   inkscape:version="0.47 r22583"
   sodipodi:docname="Studio_Ghibli_Logo.svg"><metadata
   id="metadata121"><rdf:RDF><cc:Work
       rdf:about=""><dc:format>image/svg+xml</dc:format><dc:type
         rdf:resource="http://purl.org/dc/dcmitype/StillImage" /></cc:Work></rdf:RDF></metadata><defs
   id="defs119"><inkscape:perspective
     sodipodi:type="inkscape:persp3d"
     inkscape:vp_x="0 : 49.606499 : 1"
     inkscape:vp_y="0 : 1000 : 0"
     inkscape:vp_z="212.59801 : 49.606499 : 1"
     inkscape:persp3d-origin="106.299 : 33.070999 : 1"
     id="perspective123" /></defs><sodipodi:namedview
   pagecolor="#ffffff"
   bordercolor="#666666"
   borderopacity="1"
   objecttolerance="10"
   gridtolerance="10"
   guidetolerance="10"
   inkscape:pageopacity="0"
   inkscape:pageshadow="2"
   inkscape:window-width="1366"
   inkscape:window-height="706"
   id="namedview117"
   showgrid="false"
   inkscape:zoom="4.62641"
   inkscape:cx="118.50765"
   inkscape:cy="20.776369"
   inkscape:window-x="-8"
   inkscape:window-y="-8"
   inkscape:window-maximized="1"
   inkscape:current-layer="g3" />
<g
   id="g3">
	<polyline
   fill="#FFFFFF"
   points="43.916,59.554 43.916,59.421 43.783,59.421 43.074,59.288 43.916,59.554  "
   id="polyline5" />
	<path
   d="M84.633,81.308c0.842,0,1.595,0.354,2.082,1.108l1.241-0.754c-0.753-1.24-1.861-1.816-3.323-1.816   c-1.019,0-1.86,0.222-2.48,0.842c-0.842,0.62-1.241,1.374-1.241,2.349c0,1.329,1.02,2.304,2.836,3.189l0.886,0.355   c1.329,0.62,2.082,1.373,2.082,2.348l-0.62,1.728l-1.728,0.709l-1.728-0.576l-0.621-1.728l-1.595,0.354   c0.133,1.019,0.487,1.86,1.24,2.481c0.754,0.575,1.596,0.975,2.57,0.975c1.107,0,2.082-0.399,2.969-1.108l1.107-2.835   c0-1.595-0.975-2.836-3.102-3.678l-0.975-0.398c-1.108-0.487-1.729-1.107-1.729-1.816c0-0.487,0.267-0.886,0.754-1.24   L84.633,81.308"
   id="path7" />
	<polyline
   points="93.451,81.529 96.418,81.529 96.418,80.067 88.798,80.067 88.798,81.529 91.855,81.529 91.855,92.606    93.451,92.606 93.451,81.529  "
   id="polyline9" />
	<path
   d="M106.61,88.087v-8.02h-1.596v7.399c0,2.569-1.019,3.898-3.057,3.898c-1.994,0-2.969-1.329-2.969-3.898v-7.399h-1.595v8.02   c0,1.329,0.354,2.569,1.24,3.456c0.842,0.842,1.949,1.329,3.323,1.329c1.462,0,2.569-0.487,3.411-1.329   C106.21,90.656,106.61,89.416,106.61,88.087"
   id="path11" />
	<path
   d="M111.306,80.067h-2.702v12.539h2.569l-0.354-1.463h-0.62v-9.614h0.62c3.899,0,5.894,1.64,5.894,4.83   c0,3.189-1.994,4.784-5.894,4.784l0.354,1.463c2.082,0,3.811-0.488,5.007-1.596c1.373-1.107,2.127-2.702,2.127-4.785   c0-1.993-0.754-3.589-2.127-4.696C114.851,80.555,113.255,80.067,111.306,80.067"
   id="path13" />
	<polyline
   points="121.364,80.067 119.769,80.067 119.769,92.606 121.364,92.606 121.364,80.067  "
   id="polyline15" />
	<path
   d="M135.985,86.359c0-1.861-0.62-3.323-1.949-4.563c-1.373-1.374-2.836-1.95-4.652-1.95c-1.861,0-3.323,0.576-4.563,1.95   l0.975,0.975c0.975-0.975,2.216-1.463,3.589-1.463c1.462,0,2.703,0.488,3.678,1.463c0.842,0.975,1.329,2.215,1.329,3.589   c0,1.329-0.487,2.569-1.462,3.544c-0.976,0.975-2.216,1.462-3.545,1.462c-1.373,0-2.481-0.487-3.456-1.462   s-1.462-2.215-1.462-3.544c0-1.374,0.487-2.614,1.329-3.589l-0.975-0.975c-1.374,1.24-1.994,2.702-1.994,4.563   c0,1.816,0.62,3.411,1.994,4.651c1.24,1.241,2.702,1.861,4.563,1.861c1.816,0,3.411-0.62,4.652-1.861   C135.365,89.771,135.985,88.176,135.985,86.359"
   id="path17" />
	<path
   d="M151.98,83.258l1.107-0.976c-1.373-1.595-2.969-2.437-5.051-2.437c-1.816,0-3.323,0.576-4.652,1.95   c-1.24,1.24-1.86,2.702-1.86,4.563c0,1.816,0.62,3.323,1.86,4.519c1.24,1.374,2.703,1.994,4.431,1.994s3.189-0.62,4.298-1.729   c1.107-1.107,1.728-2.569,1.728-4.297v-0.487h-5.051v1.329h3.323l-1.374,2.746l-2.835,1.108c-1.33,0-2.438-0.532-3.412-1.64   s-1.506-2.215-1.506-3.544c0-1.374,0.531-2.614,1.506-3.589c0.975-1.108,2.216-1.596,3.545-1.596   C149.631,81.175,151.004,81.929,151.98,83.258"
   id="path19" />
	<polyline
   points="155.169,80.067 155.169,92.606 156.765,92.606 156.765,86.581 162.791,86.581 162.791,92.606 164.252,92.606    164.252,80.067 162.791,80.067 162.791,85.118 156.765,85.118 156.765,80.067 155.169,80.067  "
   id="polyline21" />
	<polyline
   points="168.063,92.606 168.063,80.067 166.468,80.067 166.468,92.606 168.063,92.606  "
   id="polyline23" />
	<path
   d="M171.874,80.067h-1.595v12.539h2.968l3.058-0.709c0.886-0.621,1.373-1.64,1.373-2.747l-0.753-2.083   c-0.487-0.62-1.107-0.975-1.816-1.107v-0.088c0.842-0.399,1.329-1.241,1.329-2.349C176.437,81.175,174.975,80.067,171.874,80.067   v1.374h0.398c1.816,0,2.703,0.709,2.703,2.082c0,1.329-0.887,2.082-2.703,2.082h-0.398v1.241h1.019c2.083,0,3.19,0.709,3.19,2.215   c0,1.462-0.975,2.215-2.969,2.215h-1.24v-4.43v-1.241v-4.164"
   id="path25" />
	<polyline
   points="179.406,92.606 184.811,92.606 184.811,91.144 180.868,91.144 180.868,80.067 179.406,80.067 179.406,92.606  "
   id="polyline27" />
	<polyline
   points="187.248,92.606 187.248,80.067 185.653,80.067 185.653,92.606 187.248,92.606  "
   id="polyline29" />
	<path
   d="m 82.075,59.288 v 1.993 h 9.128 c -0.887,2.438 -2.349,4.652 -4.342,6.602 -1.817,1.861 -3.678,3.102 -5.761,3.811 l 1.241,1.64 c 2.437,-1.02 4.785,-2.703 7,-5.317 l 5.405,5.406 1.596,-1.729 -5.893,-5.14 c 1.595,-2.215 2.835,-4.651 3.455,-7.266 H 82.075"
   id="path31" />
	<path
   d="m 102.5,62.389 h 6.158 c -0.398,1.817 -1.107,3.323 -2.126,4.652 l -4.032,-2.569 -1.374,1.329 4.077,2.702 c -2.216,1.861 -4.697,3.103 -7.488,3.589 l 1.107,1.729 c 7.001,-1.595 11.166,-6.025 12.273,-13.159 h -7.488 l 0.975,-1.861 -2.082,-0.488 c -1.24,3.19 -3.189,5.538 -5.893,6.868 l 1.329,1.506 4.564,-4.298"
   id="path33" />
	<path
   d="m 126.205,62.478 -1.994,-0.842 c -1.107,3.323 -2.437,5.76 -4.253,7.134 -1.595,1.329 -4.209,2.082 -7.488,2.348 l 0.487,2.083 c 3.811,-0.399 6.602,-1.507 8.729,-3.19 1.683,-1.596 3.189,-4.077 4.519,-7.533"
   id="path35" />
	<polyline
   points="108.958,60.263 108.117,57.692 106.61,57.959 107.584,60.661 108.958,60.263  "
   id="polyline37"
   transform="translate(18,0)" />
	<polyline
   points="94.204,62.965 93.451,64.826 98.369,66.775 99.122,64.826 94.204,62.965  "
   id="polyline39"
   transform="translate(18,0)" />
	<path
   d="m 113.666,59.066 -0.842,1.816 c 1.729,0.487 3.323,1.107 4.918,1.86 l 0.842,-1.86 -4.918,-1.816"
   id="path41" />
	<polyline
   points="104.173,58.18 105.014,61.016 106.477,60.661 105.635,57.825 104.173,58.18  "
   id="polyline43"
   transform="translate(18,0)" />
	<path
   d="m 145.745,59.066 -0.843,1.816 c 1.596,0.398 3.19,1.02 4.785,1.86 l 0.976,-1.86 -4.918,-1.816"
   id="path45" />
	<path
   d="m 144.282,62.965 -0.842,1.861 4.918,1.949 0.842,-1.949 c -0.975,-0.62 -2.57,-1.241 -4.918,-1.861"
   id="path47" />
	<path
   d="m 158.194,62.478 -1.86,-0.842 c -1.108,3.323 -2.57,5.76 -4.298,7.134 -1.595,1.329 -4.165,2.082 -7.488,2.348 l 0.487,2.083 c 3.811,-0.399 6.646,-1.507 8.596,-3.19 1.861,-1.596 3.323,-4.077 4.563,-7.533"
   id="path49" />
	<polyline
   points="139.574,60.661 141.036,60.263 140.194,57.692 138.688,57.959 139.574,60.661  "
   id="polyline51"
   transform="translate(18,0)" />
	<polyline
   points="137.092,61.016 138.599,60.661 137.713,57.825 136.251,58.18 137.092,61.016  "
   id="polyline53"
   transform="translate(18,0)" />
	<polyline
   points="157.518,59.775 156.765,57.338 155.303,57.692 156.056,60.174 157.518,59.775  "
   id="polyline55"
   transform="translate(18,0)" />
	<path
   d="m 172.46,60.041 0.576,-0.133 -0.709,-2.438 -1.595,0.354 0.709,2.216 h -11.165 v 1.949 h 11.076 c -0.398,3.323 -1.728,5.893 -4.076,7.532 l -5.538,1.949 1.107,1.95 c 6.779,-1.463 10.323,-5.893 10.679,-13.381 h -1.064"
   id="path57" />
	<path
   d="m 188.19,58.8 h -2.127 v 7.488 c 0,2.127 -0.709,3.589 -2.171,4.431 l -5.672,1.107 0.621,1.994 4.164,-0.753 2.57,-1.241 c 1.728,-1.329 2.614,-3.411 2.614,-6.38 V 58.8"
   id="path59" />
	<polyline
   points="161.329,59.066 159.334,59.066 159.334,68.637 161.329,68.637 161.329,59.066  "
   id="polyline61"
   transform="translate(18,0)" />
	
	
	
	
	
	<path
   d="m 127.711,61.281 v 1.949 h 7.488 c -1.374,2.481 -3.811,4.919 -7.4,7.399 l 1.108,1.684 c 2.481,-1.595 4.431,-3.411 5.937,-5.272 l 1.551,-2.215 v 8.729 h 1.994 V 63.23 h 3.943 v -1.949 h -4.076 v -2.835 h -1.861 v 2.835 h -8.684"
   id="path73" />
	<polyline
   points="206.299,76.744 206.299,76.523 62.48,76.523 62.48,76.744 206.299,76.744  "
   id="polyline75" />
	<polyline
   points="64.075,31.375 64.075,31.153 62.48,31.153 62.125,31.375 62.125,31.508 62.967,31.375 63.853,31.508    64.075,31.375  "
   id="polyline77" />
	<polyline
   points="44.181,47.502 44.048,47.369 44.048,47.015 43.916,46.616 43.916,46.395 43.694,45.907 43.561,45.508    43.428,45.42 43.428,45.154 43.295,45.021 43.074,44.533 42.941,44.445 42.719,44.046 42.454,43.824 40.504,43.204 38.865,43.337    38.023,43.603 37.403,44.046 37.269,44.312 37.181,44.445 37.048,44.711 36.916,44.8 36.916,44.933 36.783,45.021 36.783,45.154    36.694,45.287 36.694,45.641 36.561,45.907 36.561,46.262 36.428,46.527 36.428,46.749 36.295,46.749 36.295,47.369 36.162,47.724    35.94,47.989 35.94,48.122 36.074,48.122 36.295,48.477 36.295,49.585 36.428,49.585 36.428,49.718 36.561,49.938 36.561,50.071    36.783,50.427 37.048,50.205 37.048,50.071 36.916,49.851 36.916,49.363 36.783,49.23 36.783,47.502 36.916,47.369 36.916,47.147    37.048,47.147 37.048,46.129 37.181,46.04 37.181,45.641 37.269,45.508 37.269,45.154 37.403,45.154 37.668,44.711 37.89,44.445    39.884,43.691 41.08,43.824 41.833,44.179 42.321,44.711 42.454,44.711 42.454,44.8 42.808,45.508 42.941,45.641 42.941,45.818    43.074,46.04 43.207,46.129 43.295,46.527 43.295,46.616 43.428,46.749 43.428,47.147 43.561,47.236 43.561,47.724 43.694,48.256    43.694,48.831 43.561,49.098 43.295,49.451 43.074,49.585 42.454,50.071 41.833,50.427 40.372,51.047 39.618,51.18 38.289,50.958    37.89,50.825 37.801,50.825 37.536,50.56 37.181,50.338 37.048,50.205 36.783,50.427 37.89,51.313 38.643,51.534 39.618,51.667    41.479,51.18 42.808,50.427 43.694,49.718 43.916,49.363 44.048,49.23 44.801,49.23 44.89,48.964 44.536,48.742 44.315,48.477    44.181,48.256 44.181,47.502  "
   id="polyline79" />
	<polyline
   points="29.427,46.04 29.427,46.129 29.649,46.262 29.782,46.04 29.782,45.907 29.915,45.641 29.915,45.42 30.047,45.154    30.047,44.933 30.18,44.533 30.18,44.445 30.047,44.312 29.915,44.445 29.915,44.533 29.782,44.533 29.782,44.933 29.649,44.933    29.649,45.42 29.56,45.42 29.56,45.508 29.427,46.04  "
   id="polyline81" />
	<polyline
   points="30.667,45.508 30.269,45.508 30.18,45.818 30.269,46.04 30.535,46.04 30.667,45.818 30.667,45.508  "
   id="polyline83" />
	<polyline
   points="31.244,45.907 30.889,45.907 30.889,46.04 31.156,46.262 31.244,46.129 31.244,45.907  "
   id="polyline85" />
	<polyline
   points="31.998,46.129 31.776,46.129 31.643,46.395 31.776,46.527 31.998,46.616 32.13,46.527 32.13,46.262    31.998,46.129  "
   id="polyline87" />
	<polyline
   points="37.403,47.236 37.403,48.477 37.536,48.609 37.89,49.098 38.51,49.098 38.776,48.964 38.998,48.609    38.998,47.015 38.643,47.369 38.776,47.502 38.643,47.724 38.51,47.635 38.51,47.369 38.643,47.369 38.998,47.015 38.865,46.616    38.776,46.395 38.51,46.129 38.023,46.262 37.536,46.749 37.536,47.015 37.403,47.236  "
   id="polyline89" />
	<polyline
   points="25.129,50.692 25.129,50.56 24.997,50.338 24.642,50.071 23.889,50.205 23.756,50.427 23.624,50.56    23.624,50.825 23.535,50.958 24.022,51.18 24.997,50.958 25.129,50.692  "
   id="polyline91" />
	<polyline
   points="38.51,55.478 38.377,55.876 38.377,55.965 38.776,56.363 39.263,55.965 39.13,55.876 41.833,55.965    41.833,56.098 39.884,56.098 39.263,55.965 38.776,56.363 40.372,56.585 51.404,57.338 52.157,57.56 52.91,57.56 55.347,58.047    55.967,58.047 56.1,57.959 55.834,57.56 54.018,57.205 52.29,57.072 51.182,56.851 38.51,55.478  "
   id="polyline93" />
	<polyline
   points="36.074,57.959 34.478,57.959 34.567,58.047 35.187,58.446 37.801,58.667 40.372,59.288 40.372,59.066    39.972,58.667 38.776,58.579 37.668,58.18 36.074,57.959  "
   id="polyline95" />
	<polyline
   points="56.1,62.61 56.1,62.389 55.834,62.123 55.213,61.769 55.125,62.256 55.125,62.389 53.884,62.389 51.891,61.769    51.182,61.636 44.89,59.775 44.315,59.554 45.29,59.687 46.884,60.174 47.46,60.174 54.505,61.99 55.125,62.256 55.213,61.769    51.315,60.794 50.562,60.528 38.377,57.692 38.023,57.56 36.916,57.338 36.428,57.338 35.586,57.072 34.345,57.205 34.212,57.338    34.345,57.56 34.7,57.338 35.32,57.56 36.916,57.825 37.801,58.18 40.592,58.579 40.726,58.667 41.701,58.934 41.346,59.066    41.08,59.421 41.213,59.421 52.157,62.389 55.213,62.877 56.1,62.61  "
   id="polyline97" />
	<polyline
   points="24.155,60.396 24.155,60.174 23.889,59.908 23.269,60.041 23.136,60.174 23.136,60.263 24.155,60.396  "
   id="polyline99" />
	<polyline
   points="37.801,61.902 37.801,62.389 38.289,62.743 38.643,62.389 38.289,62.123 38.377,61.99 39.884,62.478    40.105,62.478 45.91,64.959 46.264,65.092 47.992,66.066 47.992,66.199 47.859,66.199 40.105,62.965 39.618,62.877 38.643,62.389    38.289,62.743 45.023,65.313 45.157,65.446 45.91,65.801 46.53,65.934 48.833,66.908 49.232,67.041 49.941,67.174 50.075,67.041    49.587,66.687 49.099,66.199 46.53,64.604 45.777,64.339 45.29,64.073 38.998,61.769 38.023,61.636 37.801,61.902  "
   id="polyline101" />
	<path
   d="M33.238,69.877l-0.133-0.133l-0.354-0.133h-0.266l0.133,0.487l0.753,0.398l0.354,0.222l0.354,0.133l0.133,0.266v0.089   l0.842,0.399l0.532,0.354h0.088l0.266,0.354l0.222,0.487v0.178l0.267,0.089l0.354,0.354l0.398,0.266l0.222,0.487l0.133,0.133h0.133   l0.354,0.487l1.107,1.107v0.133l0.133,0.089v0.178l0.222,0.222v0.088l0.266,0.266v0.134l0.134,0.133l0.088,0.354l0.133,0.133   l0.133,0.62v0.222l0.134,0.487v0.266l0.133,0.222l0.222,0.266l0.133,0.222v0.133l0.354,0.354v0.133l0.133,0.133v0.354l0.133,0.266   l0.133,0.354v0.488l1.107,1.24l0.089,0.62v2.215l0.133,0.222v0.267l0.133,0.133v0.709l-0.133,0.133v0.266l0.487,0.354v0.266   l-0.133,0.354v0.487l0.133,0.133l0.266-0.487v-0.133l0.089-0.133v-0.354l-0.222-0.266l0.133-0.709h-0.133v-0.753l-0.133-0.354   v-0.887l-0.133-0.842v-0.133l0.133-0.266v-0.842l-1.24-1.24c-0.089-0.089-0.222-0.222-0.089-0.488l-0.133-0.62v-0.088l-0.133-0.267   v-0.266l-0.133-0.089l-0.089-0.266l-0.398-0.354V79.58l-0.134-0.133l-0.088-0.222l-0.133-0.487v-0.133l-0.133-0.266v-0.621   l-0.134-0.221v-0.089h-0.088v-0.266l-0.133-0.133l-0.267-0.399l-0.133-0.222l-0.222-0.266v-0.089l-0.133-0.133V75.77l-0.354-0.266   v-0.089l-0.975-0.975l-0.133-0.266l-0.62-0.62L37.269,73.2v-0.133l-0.088-0.089h-0.133l-0.266-0.266l-0.222-0.399v-0.222   l-0.266-0.266l-0.134-0.221l-0.222-0.134l-1.107-0.354l-0.354-0.266h0.089V70.63l-0.354-0.266L33.238,69.877"
   id="path103" />
	<path
   d="M22.162,79.713c-0.355-0.133-0.843,0-1.463,0.487l-0.266,0.222l-0.709,0.266l-0.62,0.62l-1.24,0.843l-0.133,0.266   l-0.621,0.62l-0.088,0.222l-0.134,0.133v0.266l0.222,0.222l1.994-0.133l0.709-0.089h0.398l0.354,0.222l0.354,0.354l0.487,0.398   l0.266,0.354l0.354,0.354l0.134,0.266l0.266,0.267l0.088,0.221v0.133l0.267,0.222l0.133,0.399l0.133,0.133l0.709,0.354l0.266-0.267   h0.133v-1.816h0.089v-0.487l0.133-0.133v-0.266l-0.133-0.222v-0.487l-0.089-0.398v-0.354h-0.133v-0.354l-0.133-0.133l-0.266,0.133   l0.133,0.709v0.753l0.133,0.354v0.62h-0.133v1.374l-0.133,0.222l-0.222,0.133l-0.354-0.354v-0.134l-0.133-0.133v-0.221   l-0.266-0.267l-0.354-0.487l-0.133-0.133l-0.134-0.222v-0.133l-0.222-0.266l-0.266-0.133l-0.133-0.089l-0.089-0.266l-0.62-0.354   l-1.107-0.487l-0.753,0.222h-0.842v-0.354l1.595-1.107l0.354-0.488L21.94,80.2l0.354,0.133l0.133,0.089l0.222,0.133l0.133,0.266   l0.133,0.134l0.133,0.221l0.089,0.133v0.222h0.133v0.267l0.133,0.133v0.222h0.133v0.266l0.089,0.133l0.266-0.133v-0.354   l-0.133-0.266l-0.133-0.354v-0.134l-0.089-0.354V80.82l-0.133-0.133v-0.133l-0.133-0.133l-0.62-0.487L22.162,79.713"
   id="path105" />
	<path
   d="M35.32,90.036v-0.133l-0.133-0.133v-0.088l-1.107-1.108l-0.487-0.133l-0.62,0.133l-1.107,0.576l-0.842,0.886v0.222   l-0.621,0.62l-0.487,0.398l-0.133,0.267l-0.133,0.089l-0.222,0.354v0.267l0.133,0.133l1.329,0.222h1.463v-0.354l-0.843-0.134h-1.24   l-0.089-0.221v-0.266l0.089-0.089l0.266-0.178l0.133-0.089l0.709-0.62l0.133-0.133l0.488-0.62l0.266-0.133   c0.354-0.354,0.709-0.62,1.107-0.709h0.62l0.576,0.621l0.266,0.354v0.222h0.133v0.266l0.089,0.266v0.222l0.133,1.241v0.221h0.133   v0.754l0.134,0.354v0.398l-0.134,0.089h-0.487l-0.753-0.709v-0.133h-0.089l-0.398-0.354l-0.133-0.266h-0.089l-1.019-0.354v0.354   v0.133h0.133l0.62,0.222l0.354,0.398l0.266,0.354h0.133l0.222,0.354l0.266,0.266l0.842,0.266l0.621-0.133l0.132-0.266v-0.354   l-0.132-0.62v-0.62l-0.134-0.621v-0.62l-0.088-0.576v-0.266l-0.133-0.089v-0.266L35.32,90.036"
   id="path107" />
	<polyline
   points="79.583,41.122 80.912,41.964 81.177,42.318 81.665,42.717 81.177,43.204 81.177,43.426 81.931,43.691    82.153,43.913 82.153,44.046 82.418,44.312 82.506,44.533 82.773,44.711 82.906,44.933 83.126,45.287 83.26,45.42 83.526,45.818    83.526,46.262 83.393,46.262 83.26,46.527 83.26,46.616 83.526,46.926 83.748,47.236 83.748,47.369 84.368,47.989 84.633,48.344    84.633,48.477 84.855,48.964 84.855,49.451 84.988,49.585 85.121,49.851 85.121,49.938 85.209,49.938 85.209,50.56 85.475,51.047    85.475,51.18 85.608,51.445 85.742,51.534 85.742,51.8 85.83,52.065 86.095,52.42 86.095,52.553 86.228,52.774 86.317,52.907    86.317,53.262 86.45,53.262 86.45,53.527 86.583,53.882 86.583,54.148 86.715,54.148 86.715,54.37 86.849,54.636 86.937,54.769    86.937,54.857 87.071,54.99 87.204,55.345 87.336,55.61 87.424,55.743 87.557,55.965 87.557,56.098 87.691,56.452 87.691,56.585    87.824,57.072 87.957,57.338 87.957,57.56 88.045,57.959 88.045,58.18 88.178,58.18 88.178,58.579 88.444,59.066 88.444,59.687    88.533,59.687 88.533,59.908 89.02,59.908 89.02,59.687 88.931,59.687 88.931,59.288 88.798,59.288 88.798,59.066 88.666,58.934    88.666,58.313 88.533,58.047 88.444,57.959 88.444,57.56 88.311,57.072 88.311,56.851 88.178,56.585 88.178,56.452 88.045,56.363    88.045,56.098 87.957,55.965 87.824,55.61 87.824,55.478 87.691,55.478 87.691,55.256 87.557,55.123 87.557,54.857 87.424,54.769    87.204,54.016 87.204,53.882 87.071,53.749 86.937,53.527 86.937,53.395 86.583,52.642 86.583,52.42 86.45,52.287 86.317,51.933    86.317,51.8 86.228,51.667 86.095,51.445 86.095,51.18 85.962,51.047 85.742,50.56 85.742,50.338 85.608,50.338 85.608,50.071    85.475,49.718 85.475,49.451 85.342,49.363 85.342,49.23 85.209,48.964 85.209,48.831 85.121,48.609 85.121,48.344 84.988,48.256    84.855,47.989 84.633,47.635 84.5,47.369 84.146,47.015 84.235,46.749 84.235,46.395 84.146,46.04 84.013,45.818 83.88,45.818    83.88,45.508 83.748,45.508 83.615,45.287 83.26,44.8 83.126,44.533 82.64,43.824 82.506,43.691 82.506,43.603 82.286,43.204    82.153,43.071 82.153,42.806 82.019,42.717 81.797,42.318 81.665,42.097 81.044,41.477 80.69,40.989 80.557,40.989 80.07,40.59    79.45,40.855 79.583,41.122  "
   id="polyline109" />
	<polyline
   points="38.51,24.861 38.289,24.64 38.289,24.507 38.156,24.374 37.89,24.241 37.668,24.507 37.89,24.772 38.156,25.481    38.156,25.969 38.023,25.969 38.023,26.103 37.89,26.235 37.668,26.589 37.048,26.368 36.916,26.103 36.694,25.881 36.694,25.747    36.561,25.481 36.561,25.349 36.694,25.349 36.694,24.994 36.783,24.861 36.916,24.64 37.668,24.507 37.89,24.241 37.403,24.152    36.916,24.152 36.561,24.374 36.428,24.507 36.162,24.861 36.162,25.881 36.295,26.235 36.428,26.368 36.561,26.589 36.916,26.723    37.89,26.854 38.023,26.589 38.377,26.235 38.51,25.881 38.51,24.861  "
   id="polyline111" />
	<path
   d="M73.291,5.101v0.842l0.133,0.354l0.134,0.133l0.133,0.266v0.488l0.089,0.354v0.354l0.133,0.267v1.107h0.133v0.753   l0.133,0.088v0.267l0.133,0.133v0.62h0.089v1.685l0.133,0.133v0.266l0.133,0.354v1.107l0.133,0.266v0.354l0.089,0.133l-0.089,0.089   l0.089,0.266v0.975h0.133v1.596l0.133,0.974v1.994l-0.133,0.222v2.481l-0.133,0.133l0.133,0.222v0.487h-0.133v0.886l-0.089,0.222   v0.267l-0.133,0.221v0.398l-1.595,0.621c-0.399,0.089-0.754,0.222-0.976,0.354l-1.24,0.222l-1.107,1.019v0.975l-0.133,0.133v0.222   l-0.133,0.886l-0.222,0.354l-0.133,0.355l-0.133,0.132l-0.133,0.267v0.222l-0.089,0.133v0.354l0.222,0.133l0.398-0.266l0.089-0.089   v-0.266l0.62,0.133l1.24,0.62c1.108,0.62,1.861,0.975,2.082,0.975l0.267,0.133l1.107,0.354l0.709,0.354l0.753,0.532v0.222h-0.62   l-0.222,0.266l1.816,0.975l1.463,1.107v0.133l-0.089,0.089l-1.02-0.222l-0.354,0.222l0.488,0.266   c0.62,0.133,1.24,0.399,1.595,0.754l1.24,1.196l0.487,0.398l0.354,0.487h0.133l-0.133-0.399l-1.107-1.107l-0.089-0.575   l-0.266-0.133l-0.222-0.488l-0.62-0.886L77.5,36.691l-0.134-0.133l0.222-0.266V36.07l-0.709-0.486l-0.398-0.399l-0.842-0.576   l-3.456-1.24l-1.196-0.753v-0.222l0.842,0.089h0.621v-0.222l-0.134-0.134l-1.462-0.265l-0.62-0.487l0.133-0.09l1.107,0.223h0.354   l1.107,0.266h0.354l0.267-0.134l-0.134-0.265l-2.348-0.488l-0.709-0.222l0.133-0.133l0.222-0.133l1.373,0.133l2.083,0.621   l0.842,0.354l0.266-0.133v-0.222l-0.133-0.134l-0.753-0.487l-1.108-0.266L70.5,29.912l-0.133-0.133L70.5,29.69h0.576l1.107-0.133   h1.861v-0.133l-1.108-0.266h-2.215l-0.133-0.089l0.753-0.398l1.329-0.487l1.241-0.222l0.886-0.487v-0.134l0.487-0.753v-0.486   l0.133-0.134v-3.544l0.089-0.267l-0.089-0.221l0.089-0.621v-3.589h-0.089v-1.329l-0.133-0.975v-0.62l-0.133-0.62v-0.62h-0.133   v-0.487l-0.133-0.266v-0.355l-0.089-0.354v-1.995l-0.133-0.088V9.266l-0.133-0.267V8.646l-0.133-0.134V7.671L74.31,7.537V7.05   l-0.133-0.133V6.784l-0.133-0.222V6.43l-0.621-1.729L73.07,4.613l-0.887,0.222l-0.222,0.266l-0.133,0.221l-0.133,0.134L71.474,5.81   l-0.487,1.107l-0.266,0.267L70.5,7.671l-0.133,0.133l-0.753,0.975l-0.133,0.221l-0.354,0.399V9.62l-0.266,0.266l-0.842,1.595   l-0.134,0.354l-0.133,0.133l-0.089,0.267l-0.133,0.354l-0.266,0.222l-0.089,0.266l-0.133,0.133l-0.266,0.487v0.133l-0.089,0.089   l-0.266,0.753l-0.266,0.133v0.133l-0.222,0.487l-0.133,0.089l-0.133,0.266v0.133l-0.089,0.354v0.133l-0.133,0.134v0.221   l-0.133,0.134v0.354l-0.133,0.267v0.354l-0.487,0.974v0.134l-0.133,0.133l-0.488,0.753l-0.133,0.354l-0.089,0.133l-0.133,0.487   l-0.354,0.487l-0.134,0.488L63.1,21.938l-0.133,0.221l-0.222,0.399l-0.133,0.089v0.133l-0.133,0.266v0.222l0.133,0.886l0.842,1.107   l0.398,0.354v0.133h0.089l0.133,0.355l0.399,0.62v0.619l-0.399-0.132l-0.487-0.487l-1.949-1.108l-0.62,0.621l2.215,1.595   l0.62,0.753l0.222,0.222l0.267,0.133l0.133-0.266l-0.754-0.709l-0.975-0.753l-0.62-0.621v-0.133l-0.133-0.088l0.62,0.354   l0.267,0.266l0.487,0.354l0.088,0.134l0.62,0.354l0.267,0.222l0.133,0.266v0.354l-0.133,0.266l0.133,0.133v0.354h-0.133   l-0.399-0.133l-2.171-1.595l-0.62,0.133l0.354,0.354l1.24,0.753l0.134,0.222l-0.267-0.089l-3.189-0.487l-0.754-0.266l-0.709-0.133   l-0.133-0.133h-2.082l-0.532-0.222v-0.354l0.399-0.398l1.24-0.354l0.576-0.134l0.133-0.221l-0.354-0.133h-0.354l-0.398,0.133v0.088   l-0.222,0.133l-0.753,0.134v-0.134h0.133l0.222-0.221h0.62l0.398-0.133l0.975-0.488v-0.133h-0.398l-0.576,0.267l-1.24,0.088   l-0.399-0.222l-0.221,0.488H54.86l0.133,0.221v0.532L54.86,27.21l-0.133,0.62l-0.488,0.222l-2.348,0.266l-0.089-0.487v-1.861   l0.089-0.088V25.26l0.133-0.266l-0.133-0.133v-0.354l-0.089-0.133l-0.133-0.222l0.133-0.266l-0.886-0.487l-0.488-0.354   l-0.088-0.133v-0.133l-0.133-0.222v-0.886l0.133-0.355v-0.266l0.088-0.089l0.267-0.531v-0.089l0.088-0.266v-0.133l0.134-0.089   l0.133-0.266v-0.354l0.133-0.133v-0.354l0.222-0.886v-0.354l0.133-0.354l0.133-0.266v-0.134l0.222-0.354v-0.266l0.133-0.089v-0.266   l0.133-0.133v-0.133l0.133-0.222l0.133-0.133v-0.222l0.089-0.133v-0.267l0.133-0.132v-0.222l0.133-0.134l0.487-0.974l0.266-0.754   l0.089-0.088l0.133-0.267l0.133-0.133l0.354-0.709l0.488-0.531l0.62-0.843l0.133-0.221l0.266-0.398l0.975-0.975l0.133,0.133   l0.089,0.221v0.267l0.133,0.133v0.487l0.133,0.354v0.134l0.133,0.354v1.108l0.089,0.266v0.709l0.133,0.267v1.728l0.133,0.221v0.134   l0.133,0.133v0.62l0.133,0.222v1.595l0.089,0.267v1.462l-0.089,0.133v1.329l0.089,0.133v0.62l0.133,0.267v0.222l0.133,0.133v0.975   l-0.354,0.753l-2.215,1.107l-0.398,0.354l-0.134,0.266l0.134,0.089v0.266h0.266l1.107-0.266h0.487l0.62-0.089l-0.398-0.266h-0.842   v-0.133l0.753-0.354l1.108-0.753l0.088-0.222l0.266-1.374v-0.354l-0.133-0.133v-1.463l-0.133-0.133v-2.349l-0.088-0.221v-1.108   h0.088l-0.088-0.133v-1.595l-0.134-0.266v-0.842l-0.133-0.222v-0.133l-0.133-0.398v-0.488l-0.089-0.221v-0.399l-0.133-0.222v-1.241   l-0.133-0.354V9.531l-0.133-0.266V8.778L57.34,8.291V8.158l-0.133-0.267V7.804l-0.133-0.267h-0.62l-0.842,0.887H55.48v0.222   l-0.354,0.354l-0.398,0.753l-0.709,0.754l-0.399,0.709l-0.487,0.62l-0.133,0.133v0.134l-0.089,0.221l-0.133,0.488l-0.133,0.133   v0.133l-0.222,0.354v0.398l-0.266,0.221v0.134l-0.133,0.222l-0.133,0.132v0.267l-0.089,0.222v0.266l-0.266,0.354v0.133   l-0.133,0.266v0.089l-0.089,0.266l-0.133,0.134v0.221l-0.133,0.399l-0.267,0.222v0.266l-0.088,0.222v0.133l-0.133,0.133v0.62   l-0.134,0.222v0.354l-0.088,0.134v0.487l-0.133,0.398l-0.267,0.487v0.133l-0.266,0.488v0.222l-0.088,0.397v0.355l0.088,0.222   l0.133,0.133v0.266l0.267,0.222l1.462,0.975l-0.222,0.62l-1.728-0.842l-1.02-0.266c-0.089-0.089-0.222,0-0.354,0.133l0.487,0.354   c0.398,0,0.753,0.133,0.975,0.398l-0.354,0.222l-0.222,0.398h0.842l0.754,0.089l0.62,0.266l-0.133,0.267l-0.975,0.088l-0.532,0.134   v0.133h0.665l0.354-0.133l0.487,0.133v0.354l-0.133,0.266l-1.241,0.134l-0.133,0.222l0.133,0.132l0.532-0.132l0.442-0.222   l0.399,0.089v0.398l-0.399,0.222l0.134,0.354v0.266l-0.354,0.133l-0.134-0.266l0.488-0.133l-0.134-0.354l-0.708,0.354   c-0.621,0.133-0.843,0.266-0.843,0.398l-0.753,0.354l-0.133,0.133l-0.222-0.133l0.089-0.354v-0.398l-0.089-0.222l-1.373-0.354   v-0.398l-0.487-0.975l-0.975-1.241l-0.621-0.354l-0.354-0.753l-0.621-0.62v-0.222l-0.133-0.133l-0.133-0.354l-0.709-0.975   l-0.753-0.621l-1.595-0.975v-0.266l-0.134-0.267l-0.133-0.088v-1.24l-0.133-0.133v-0.134l-0.088-0.221v-0.133L39.75,17.02h-0.133   v-0.267l-0.221-0.354l-0.134-0.266v-0.089l-0.753-1.639v-0.222l-0.133-0.134l-0.089-0.354l-0.133-0.133h-0.354l-0.266,0.133v0.222   l-0.133,0.132l-0.134,0.267v0.354l-0.088,0.266v0.487l-0.133,0.354v0.975l-0.266,0.267l-0.222-0.399l-0.487-0.975v-0.133   l-0.134-0.222v-0.133l-0.132-0.222l-0.354-0.399h-0.267l-0.133,0.267v0.222l-0.089,0.266v0.354l-0.133,0.266v1.108L34.7,17.374   v0.753l0.133,0.133H34.7v0.709h0.133v0.753l0.133,0.133v0.222l0.089,0.266v2.438l-0.709,1.462v0.62l-0.133,0.133v0.753l0.266-0.133   l0.089-0.266L34.7,25.26l0.133-0.266l0.133,0.133v0.133L34.7,25.747l0.133,0.222l0.133,0.134h0.089v0.133h-0.089l-0.133,0.221   l-0.266,0.133l-0.089-0.133v-0.842l-0.266,0.133H34.08l0.133,0.355v0.62l0.133,0.266v0.709l0.133,0.354v1.019h-0.133v0.709   l-0.133,0.133v0.753l0.133,0.222v0.398l0.133,0.223l0.089,0.619l0.133,0.267l0.266,0.709l0.222,0.266l0.267,0.487l-0.488,0.487   L34.7,34.697h-0.354l-0.354,0.267l-0.133-0.267v-0.354l-0.266-0.133l-0.222,0.398l-0.266,0.488v0.088l-0.753,0.754l-0.222,0.753   l-0.266,0.221l-0.222,0.399l-0.267,0.487l-0.133,0.089v0.266l-0.088,0.133l-0.133,0.222l-0.267,0.398v0.089l-0.089,0.178   l-0.398,0.708l-0.222,0.222l-0.266,0.399v0.088l-0.222,0.532l-0.133,0.088l-0.133,0.267l-0.133,0.133l-0.089,0.354l-0.133,0.266   v0.266l-0.133,0.222v0.222l-0.133,0.266v0.133l-0.133,0.266v0.311l-0.089,0.266v0.267l-0.133,0.487v0.222l-0.133,0.266v0.398   l-0.133,0.089l-0.487,0.709l-0.354,0.31l-2.969,0.798l-1.462,0.886v0.222l-0.133,0.267l-0.134,0.133v1.107l0.134,0.222v0.398   l-0.222,0.354l-0.399,1.107v0.133l-0.354,0.487H20.92l-0.088-0.133l-0.399-0.133h-0.222l-0.398,0.133l0.133,0.266l0.133,0.089   l0.975,0.266l0.62,0.222l0.133,0.267v0.975l-0.133,0.133L20.3,55.345l-2.569,1.019v0.222l0.133,0.266l3.677-1.24l0.266,0.266   l-0.133,0.222v0.266l-0.133,0.089v0.133l-0.133,0.266v0.222l-0.089,0.133v0.266l-0.62,0.354L20.3,58.18l1.019-0.133l0.089,0.133   l0.133,0.267l0.133,0.354v0.134l0.133,0.221v0.134l0.134,0.398v0.089l0.088,0.266v0.133l0.134,0.089l0.133,0.266l-0.133,0.266   l-1.108,0.222l-0.62,0.266l-0.222,0.222v0.62l0.089,0.133l-0.089,0.133l-1.24,1.817l-0.62,0.398l-0.62,0.576l-0.354,0.266v0.354   l-0.133,0.133l-0.621,0.487l-0.222,0.354l-1.728,1.861l-1.107,0.886l-0.62,0.354l-0.621,0.222l0.267,0.531l-1.241,1.196   l-0.266,0.399v0.088l0.133,0.399l-0.133,0.088l-0.487,0.621l-0.222,0.266l-0.266,0.487v0.62l-0.354,0.398l-0.133,0.311L9.401,75.77   v0.266l-0.133,0.267v0.222l-0.887,0.886v0.222l-0.708,0.975v0.354l-0.133,0.133v0.266l-0.134,0.487v0.842l-0.354,0.487   l-0.133,0.133l-0.133,0.222l-0.089,0.399l-0.133,0.133l-0.133,0.354h0.133v0.221l0.133,0.267v0.354l-0.133,0.266v0.487   l-0.133,0.222v0.133l-0.133,0.266v0.222l0.133,0.133l0.266-0.222v-0.531l0.089-0.089v-0.266l0.133-0.222v-0.753l0.133-0.267   l0.133-0.088l0.222-0.398v-0.089l-0.133-0.266l0.133-0.134l0.487-0.708l0.487-0.532l-0.221-0.487h0.133l1.949-0.842h0.753   l0.842,0.62l0.266,0.222V80.2l0.089,0.133l0.62,0.487H13.3l0.398-0.487v-0.266L13.3,80.2l-0.089,0.133l-0.399-0.398v-0.089   l-0.221-0.398l-0.267-0.222l-0.222-0.487l-0.133-0.133l-0.886-0.266l-1.196,0.266L9.401,78.96l-0.887,0.398l-0.221-0.133v-0.398   l0.088-0.222h0.133V78.34l0.134-0.354l0.354-0.354l0.133-0.222l0.266-0.266l0.354-0.133l0.487-0.487l0.487-0.399   c0.354-0.222,0.487-0.354,0.62-0.354l1.374-0.753l0.222,0.266v0.354l0.133,0.487v0.487l-0.133,0.621l0.133,0.177v0.443h0.133v1.506   l0.089,0.487V80.2l0.398-0.133l0.089-0.133l0.133-0.222v-1.107l-0.133-0.266v-0.621h-0.089v-2.437l-0.133-0.089v-0.266L13.3,74.529   l-0.488-0.089l-0.487,0.222l-0.133,0.133l-1.816,0.975l0.222-0.753v-0.222l0.133-0.266l0.975-0.709v-0.266H11.35l-0.266,0.133   l0.133-0.266l0.62-0.621l1.108-0.842l0.133-0.487h-0.487v-0.133l1.107-0.975l0.089-0.354l0.753-0.753l1.595-1.107l0.887-0.843   l0.62-0.531l0.975-0.576l3.057-1.24l1.596-0.354l0.133,0.354l0.222,0.133l1.728,0.487c0.62-0.266,0.975-0.266,1.241,0l0.975,0.487   l0.753,0.222l0.62,0.487l0.62,0.398l0.975,0.842l0.621,0.399l0.62,0.222l1.107,0.753l0.354-0.133l-0.266-0.354l-0.709-0.487   l-1.107-0.532l-2.703-2.082l-2.215-0.709h-0.754c-0.222-0.266-0.487-0.398-0.753-0.398l-0.709-0.222l-1.24-0.133l-2.216,0.354   c-0.62,0.266-1.107,0.487-1.373,0.62l-0.576,0.398l-0.62,0.089v-0.222l1.107-0.975h0.089l0.531-0.398l0.089-0.222v-0.134   l0.398-0.354l0.354-0.62l0.62-0.488l0.133-0.266l0.222-0.354l0.133-0.266l1.108-0.354l0.133-0.133l-0.266-0.354v-0.266l0.133-0.222   l-0.133-0.62l-0.134-0.133l-0.487-0.975v-0.621l-0.088-0.354v-0.62l0.088-0.266v-0.133l0.134-0.222v-0.266l0.133-0.089v-0.62   l0.133-0.487v-0.753l-0.133-0.267v-0.222l0.133-0.266v-0.354l0.088-0.266v-0.089l0.134-0.266l0.133-0.133v-0.222l0.133-0.266   l0.487-0.487l-0.266-0.753l-0.089-0.842l0.487-0.843l0.487-0.133l0.709,0.354c0.398,0,0.753,0.267,1.107,0.621v0.133l0.399,0.709   v0.531l0.088,0.222l0.399-0.222v-0.887l-0.267-0.486l-1.107-0.976l-0.709-0.354l0.354-0.267l0.354-0.133h0.266v0.266h0.487   l0.621-0.133l0.133,0.133v0.222h1.462l0.133,0.398l-0.266,0.222l0.886,0.399v0.088l-0.133,0.134v0.133   c0.133,0.133,0.222,0.221,0.62,0.221l0.089-0.221l-0.354-0.354v-0.266h0.133l-0.133-0.134l-0.487-0.708l-0.266-0.267l-0.487-0.133   L27.7,47.502v-0.354l0.842-0.753l0.266,0.133h0.266l0.089-0.133v-0.576h0.133v-0.664l0.133-0.222V44.8l0.133-0.267v-0.487   l-0.398,0.399v0.266L29.073,44.8l-0.133,0.62v0.221l-0.133-0.133l0.133-0.221V44.8l0.133-0.621v-0.354l0.089-0.398v-0.089   l0.133-0.266v-0.266l0.133-0.089v-0.222l0.222-0.531l0.133-0.133l0.753-1.463l0.133-0.089l0.222-0.531l0.134-0.354l0.221-0.399   v-0.222h0.133l0.267-0.62l0.354-0.62L32.13,37.4l0.222-0.488l0.266-0.354l0.266-0.266v0.398l0.089,0.221l0.266-0.354l0.222-0.62   l0.133-0.133v-0.222h0.398l0.089,0.222l0.398-0.222l0.709-0.754v-0.133l0.487-0.487l1.02,0.133l0.222-0.133l-0.754-0.222   l-0.222-0.487l-0.266-0.266l-0.487-0.975l-0.133-0.134v-0.265l-0.089-0.089v-0.266l-0.133-0.223v-3.81H34.7v-0.398l0.133-0.089   l0.354-0.134l0.267-0.266v-0.708h0.133l-0.133-0.399v-0.487l-0.267-0.222l-0.354-0.133v-0.398l0.621-1.107l0.221-0.222v-0.133   l0.134-0.133l-0.134-0.222v-0.133l-0.088-0.134v-2.082l-0.133-0.133v-0.354l-0.134-0.133v-0.222l-0.133-0.399V17.02l0.133-0.133   v-0.621l0.134-0.222v-0.398l0.221,0.266v0.133l0.134,0.089v0.133l0.132,0.133v0.134l0.134,0.088v0.133l0.088,0.134l0.267,0.753   l0.133,0.222l0.133,0.133v1.728h-0.133v2.216h0.133l0.222-0.266h0.133v-2.083l0.133-0.354v-0.753l0.088-0.842v-0.487l0.134-0.133   v-0.267h0.133v-1.462h0.133v-0.266l0.133-0.089v-0.266h0.089l0.266,0.266l0.133,0.222v0.133l0.089,0.133l0.133,0.222v0.133   l0.133,0.133v0.133l0.133,0.354v0.134h0.089v0.221l0.133,0.267v0.133h0.133v0.222l0.267,0.266v0.222h0.088v0.886l0.133,0.487v0.222   l0.133,0.398v0.089l0.222,0.133l0.266,0.354l1.729,1.02l0.753,0.708v0.267l0.089,0.222h0.133v0.266l0.133,0.133v0.089l0.354,0.398   l0.133,0.222l0.133,0.133l0.089,0.266l0.133,0.089v0.133l0.266,0.398l0.354,0.354l0.354,0.222l0.267,0.133l0.133,0.266l0.221,0.222   l0.267,0.62h0.133v0.266l0.089,0.134l0.133,0.354v0.134l0.221,0.222v0.133l0.887,0.354l0.133,0.398l-0.133,0.089l-0.133,0.266   l-4.165,1.595c-0.354,0.133-0.753,0.267-0.842,0.354l-2.836,1.24l-1.24,0.843l-0.222,0.266h-0.133l-0.133,0.266l-0.267,0.222   l-0.088,0.266l-0.266,0.222l-0.222,0.133v0.133l0.089,0.222l0.486-0.222l1.02-0.975l1.596-1.24l0.088,0.133l0.62-0.133l2.703-1.374   l7.399-2.082l3.811-0.222l5.893,0.576h0.354l0.487,0.133l0.266,0.266l-0.133,0.222l0.487,0.398l-0.62,0.222v0.266h1.24l0.753,0.134   h0.709l-0.089-0.532v-0.089l0.222-0.133v0.222h-0.222l0.089,0.532l0.267,0.221l0.354,0.134l0.133-0.267v-0.62l0.133-0.222v-0.487   l0.133-0.266v-1.24l0.089-0.354v-0.843l-0.222-0.486l-0.133-0.133l-0.222-0.488l-0.133-0.487l-0.267-0.398l-0.487-0.354   l-0.354-0.62v-0.222L63.1,23.399l0.133-0.133v-0.133l0.134-0.222l0.088-0.133v-0.222l0.62-0.886V21.45l0.134-0.267l0.133-0.133   l0.222-0.354l0.133-0.354v-0.398l0.266-0.487l0.089-0.354l0.133-0.133l0.398-0.709v-0.532l0.222-0.487v-0.088l0.133-0.266V16.62   l0.133-0.088l0.089-0.267v-0.222l0.133-0.266v-0.133l0.266-0.487l0.222-0.222v-0.266l0.398-0.487l0.089-0.266v-0.222l0.266-0.266   l0.354-0.842l0.399-0.354l0.088-0.267v-0.133l0.133-0.133l0.134-0.222l0.133-0.354l0.222-0.531l0.133-0.089l0.975-1.507L70.5,8.291   l0.354-0.399l0.222-0.487l0.266-0.354l0.133-0.266l0.133-0.089l0.354-0.753l0.222-0.266l0.399-0.576l0.354-0.133L73.291,5.101"
   id="path113" />
	<polyline
   points="37.801,25.614 37.668,25.127 37.181,24.994 37.048,25.127 36.916,25.349 37.048,25.747 37.181,25.969    37.269,25.969 37.668,25.881 37.801,25.881 37.801,25.614  "
   id="polyline115" />
</g>
</svg>